<svg width="362" height="188" fill="none" xmlns="http://www.w3.org/2000/svg"><path d="M67.683 105.335a2.003 2.003 0 00-1.397-.498 2.09 2.09 0 00-1.479.498 2.236 2.236 0 000 2.972c.393.353.908.538 1.434.513a2.07 2.07 0 001.412-.498 1.864 1.864 0 00.57-1.486 1.907 1.907 0 00-.555-1.487l.015-.014zm.348 16.238v-10.851l-4.998.171v1.747l1.619.453v8.48l-1.62.468v1.746h6.633v-1.768l-1.634-.446zm-21.123-4.504c.015-.27.015-.54 0-.81.016-1.004-.173-2-.554-2.928a4.453 4.453 0 00-1.738-2.051 5.663 5.663 0 00-3.068-.743 6.539 6.539 0 00-3.356.839 5.648 5.648 0 00-2.218 2.416 8.442 8.442 0 00-.725 3.768 7.866 7.866 0 00.74 3.596 5.192 5.192 0 002.07 2.193 6.1 6.1 0 003.075.743 8.93 8.93 0 002.824-.476 11.213 11.213 0 002.876-1.441l-1.16-1.821a8.975 8.975 0 01-1.96.877 5.68 5.68 0 01-1.737.304 2.943 2.943 0 01-1.885-.579 3.11 3.11 0 01-1.02-1.605 6.773 6.773 0 01-.26-1.405h8.008c.044-.327.08-.624.103-.892l-.015.015zm-8.117-1.137c.042-.32.1-.638.177-.951a2.98 2.98 0 01.828-1.487c.402-.37.933-.568 1.479-.55.478-.025.95.122 1.33.417.337.306.571.708.673 1.152.11.457.168.926.17 1.397l-4.657.022zm-6.166 5.603v-6.948a4.15 4.15 0 00-1.028-3.092 3.49 3.49 0 00-2.543-1.01 6.064 6.064 0 00-2.492.594 8.21 8.21 0 00-2.07 1.449 3.163 3.163 0 00-1.198-1.486 3.679 3.679 0 00-1.981-.55 5.98 5.98 0 00-2.477.595 8.429 8.429 0 00-2.085 1.412l-.34-1.836-4.25.193v1.747l1.618.483v8.449l-1.619.469v1.746h6.418v-1.731l-1.383-.439v-7.246a4.798 4.798 0 011.286-.884c.433-.225.91-.349 1.398-.364a1.529 1.529 0 011.205.557c.364.497.537 1.109.488 1.724v6.235l-1.383.417v1.746h6.137v-1.746l-1.376-.476v-7.194c.376-.35.8-.645 1.257-.877.43-.236.908-.368 1.398-.386a1.504 1.504 0 011.22.557c.355.5.523 1.111.473 1.724v6.243l-1.353.409v1.746h6.35v-1.746l-1.67-.484zm27.74-.014v-16.595l-5.117.193v1.717l1.738.579v3.248c-.163 0-.325-.045-.48-.059a9.963 9.963 0 00-1.065-.052 7.05 7.05 0 00-5.072 1.701c-1.212 1.16-1.811 2.936-1.811 5.329a9.19 9.19 0 00.613 3.545 4.86 4.86 0 001.693 2.192c.727.5 1.59.76 2.47.743.77.005 1.53-.173 2.218-.52a8.05 8.05 0 001.848-1.315l.362 1.716 4.251-.193v-1.731l-1.648-.498zm-3.342-.989c-.322.264-.671.49-1.043.676-.407.222-.86.344-1.323.357a1.961 1.961 0 01-1.368-.527 3.385 3.385 0 01-.88-1.487 7.577 7.577 0 01-.31-2.289 5.57 5.57 0 01.784-3.166 2.806 2.806 0 012.499-1.151 6.736 6.736 0 011.64.215v7.372zm24.476.967v-7.001a3.673 3.673 0 00-1.19-2.973 5.278 5.278 0 00-3.424-.973c-.84.008-1.68.09-2.506.245a37.73 37.73 0 00-3.002.676l.192 3.597h2.1l.274-1.724a7.384 7.384 0 012.048-.29 2.293 2.293 0 011.582.483 2.097 2.097 0 01.54 1.628v1.33h-2.389a8.952 8.952 0 00-2.75.372 3.247 3.247 0 00-1.73 1.174 3.729 3.729 0 00-.591 2.229 3.854 3.854 0 001.012 2.861 3.532 3.532 0 002.559.996 5.068 5.068 0 002.336-.594 6.665 6.665 0 001.93-1.553l.399 2.028 4.221-.17v-1.821l-1.611-.52zm-3.387-1.138c-.37.342-.78.639-1.22.885a2.824 2.824 0 01-1.36.386 1.367 1.367 0 01-1.05-.438 1.775 1.775 0 01-.428-1.308 1.496 1.496 0 01.487-1.226 2.786 2.786 0 011.738-.402h1.833v2.103zm48.958 30.307v-6.867a4.039 4.039 0 00-1.064-3.122 3.816 3.816 0 00-2.728-1.033 6.262 6.262 0 00-2.492.573 7.72 7.72 0 00-2.122 1.427l-.34-1.829-4.251.194v1.746l1.619.483v8.45l-1.619.468v1.746h6.447v-1.746l-1.479-.438v-7.239a5.22 5.22 0 011.309-.899 3.426 3.426 0 011.419-.364 1.75 1.75 0 011.368.565c.388.494.573 1.119.518 1.746v6.205l-1.479.424v1.746h6.454v-1.746l-1.56-.49zm-16.036-16.201a2.031 2.031 0 00-1.404-.498 2.082 2.082 0 00-1.435.498 1.932 1.932 0 00-.446.68c-.098.257-.14.532-.123.806a1.881 1.881 0 00.547 1.486c.393.353.909.535 1.434.506a2.09 2.09 0 001.413-.491 2.24 2.24 0 000-2.973l.014-.014zm.34 16.238v-10.85l-4.997.17v1.747l1.619.453v8.48l-1.619.468v1.746h6.617v-1.746l-1.62-.468zm-6.979-3.664a3.448 3.448 0 00-1.242-1.115 9.352 9.352 0 00-1.619-.691l-1.612-.52a5.145 5.145 0 01-1.256-.572 1.041 1.041 0 01-.496-.915 1.094 1.094 0 01.555-.973c.436-.24.93-.356 1.427-.334a8.174 8.174 0 011.656.185l.325 1.487h2.1l.162-3.27c-.75-.197-1.51-.353-2.277-.468a12.417 12.417 0 00-2.099-.186 7.713 7.713 0 00-2.573.416 4.015 4.015 0 00-1.87 1.293 3.615 3.615 0 00-.74 2.296c-.033.67.137 1.333.488 1.903.317.479.743.876 1.242 1.159a7.642 7.642 0 001.604.691c.562.171 1.102.335 1.605.506.437.138.853.338 1.234.594a1.117 1.117 0 01.473.951 1.032 1.032 0 01-.355.825c-.259.225-.564.39-.894.483a3.808 3.808 0 01-1.146.171 7.796 7.796 0 01-1.856-.245l-.221-1.791h-2.122l-.163 3.642c.74.193 1.479.349 2.218.46.687.11 1.382.167 2.077.171a8.68 8.68 0 002.958-.483 4.68 4.68 0 002.099-1.486c.52-.694.782-1.548.74-2.415a3.138 3.138 0 00-.488-1.821l.066.052zm-13.034-12.612a2.013 2.013 0 00-1.397-.498 2.09 2.09 0 00-1.434.498 2.237 2.237 0 000 2.973 1.999 1.999 0 001.478.505 2.082 2.082 0 001.412-.49 1.886 1.886 0 00.57-1.486 1.877 1.877 0 00-.562-1.487l-.067-.015zm.429 16.239v-10.813l-4.998.17v1.747l1.62.453v8.48l-1.62.468v1.746h6.617v-1.746l-1.62-.505zm-6.565-.484c-.37.149-.74.261-1.028.357-.28.081-.567.126-.858.134a1.16 1.16 0 01-1.012-.468 2.554 2.554 0 01-.34-1.487v-6.532h3.26l.052-2.229h-3.313v-3.449l-3.4.61v2.831l-1.886.446v1.821h1.886v6.993a4.53 4.53 0 00.85 2.973 3.143 3.143 0 002.528 1.01 8.014 8.014 0 003.89-1.122l-.63-1.888zm-10.64-10.538c-.797 0-1.58.213-2.269.617a9.54 9.54 0 00-1.796 1.412l-.348-1.858-4.251.194v1.746l1.612.491v8.442l-1.612.468v1.746h7.001v-1.746l-2.003-.476v-7.045c.288-.334.624-.622.998-.854a2.77 2.77 0 011.479-.469h.377l.28 2.022h1.952l.222-4.459a6.097 6.097 0 00-1.648-.245l.007.014zm-27.627.372v1.754l1.375.282-2.521 8.257-2.218-8.331 1.434-.431v-1.694l-5.915.193v1.754l1.05.282 3.416 10.88h3.962l3.845-10.917 1.057-.468v-1.724l-5.485.163zm94.144 11.683a5.956 5.956 0 00-3.697-.959h-4.303l.289-1.873a8.5 8.5 0 001.959.223c1.511.077 3-.384 4.207-1.301a4.361 4.361 0 001.567-3.552 4.303 4.303 0 00-.192-1.338 3.44 3.44 0 00-.333-.743l1.479-.297v-1.873l-3.549.149a8.024 8.024 0 00-3.016-.513 6.448 6.448 0 00-4.266 1.278 4.336 4.336 0 00-1.531 3.53 4.486 4.486 0 00.636 2.431 4.174 4.174 0 001.531 1.426c-.23.387-.437.744-.599.989a8.872 8.872 0 00-.518.929c-.118.26-.214.475-.266.631a1.44 1.44 0 00-.089.491 1.26 1.26 0 00.57 1.078c.136.097.285.174.443.23a5.283 5.283 0 00-1.338.907 2.726 2.726 0 00-.835 2.028 2.567 2.567 0 001.478 2.379 9.753 9.753 0 004.481.802c2.388 0 4.169-.364 5.367-1.1a3.548 3.548 0 001.337-1.359c.314-.567.468-1.21.445-1.859a3.28 3.28 0 00-1.242-2.757l-.015.023zm-7.378-9.186a2.34 2.34 0 011.752-.609 2.053 2.053 0 012.274 1.414c.098.311.122.641.069.964a2.552 2.552 0 01-.628 1.873 2.465 2.465 0 01-1.811.631 2.161 2.161 0 01-1.679-.631 2.643 2.643 0 01-.569-1.821 2.52 2.52 0 01.592-1.821zm4.591 13.444c-.89.334-1.84.475-2.788.416a6.378 6.378 0 01-2.513-.364 1.163 1.163 0 01-.799-1.07 2.167 2.167 0 011.013-1.695h3.697a3.105 3.105 0 011.663.364 1.23 1.23 0 01.584 1.137 1.305 1.305 0 01-.857 1.212zm-115.219-5.336v-6.993a3.666 3.666 0 00-1.183-3.01 5.294 5.294 0 00-3.43-.974 14.26 14.26 0 00-2.499.245c-.91.164-1.915.387-3.009.677l.192 3.597h2.107l.267-1.725a7.286 7.286 0 012.048-.289 2.278 2.278 0 011.582.483 2.072 2.072 0 01.547 1.627v1.338h-2.396c-.929-.02-1.856.1-2.75.357a3.365 3.365 0 00-1.73 1.181 3.68 3.68 0 00-.591 2.23 3.818 3.818 0 001.02 2.861 3.507 3.507 0 002.558 1.003 5.013 5.013 0 002.329-.594 6.764 6.764 0 001.93-1.546l.399 2.021 4.229-.171v-1.746l-1.62-.572zm-4.598-.246a2.865 2.865 0 01-1.368.387 1.37 1.37 0 01-1.05-.439 1.818 1.818 0 01-.421-1.308 1.494 1.494 0 01.48-1.226 2.807 2.807 0 011.738-.401h1.84v2.125c-.37.342-.78.639-1.22.885m19.109.253v-16.64l-5.116.193v1.725l1.737.572v3.255c-.162 0-.325-.045-.48-.06-.354-.035-.71-.053-1.065-.052a7.054 7.054 0 00-5.094 1.739c-1.212 1.152-1.81 2.928-1.81 5.329a9.056 9.056 0 00.613 3.545 4.858 4.858 0 001.693 2.229c.726.5 1.59.76 2.47.743a4.938 4.938 0 002.217-.52 8.02 8.02 0 001.848-1.315l.363 1.716 4.25-.2v-1.717l-1.626-.542zm-5.744.044c-.507.01-.998-.18-1.368-.527a3.405 3.405 0 01-.88-1.487 7.46 7.46 0 01-.31-2.281 5.537 5.537 0 01.783-3.166c.287-.395.67-.709 1.114-.911a2.8 2.8 0 011.415-.241 6.784 6.784 0 011.641.215v7.365a5.32 5.32 0 01-1.042.684 2.95 2.95 0 01-1.324.357m32.517-4.519c.028-.269.04-.539.037-.81.016-1.004-.173-2-.554-2.928a4.512 4.512 0 00-1.738-2.051 5.663 5.663 0 00-3.068-.743 6.518 6.518 0 00-3.357.839 5.602 5.602 0 00-2.217 2.416 8.32 8.32 0 00-.784 3.76 7.866 7.866 0 00.74 3.597 5.186 5.186 0 002.07 2.222 6.154 6.154 0 003.082.743 8.987 8.987 0 002.825-.475 11.336 11.336 0 002.875-1.442l-1.16-1.821a9.332 9.332 0 01-1.982.907 5.68 5.68 0 01-1.737.305 2.95 2.95 0 01-1.885-.58 3.155 3.155 0 01-1.028-1.605 7.192 7.192 0 01-.259-1.405h8.007c.044-.327.081-.624.104-.892l.03-.037zm-7.962-2.036a3.069 3.069 0 01.82-1.486 2.137 2.137 0 011.479-.543c.475-.025.944.119 1.323.409.343.305.58.71.68 1.159.111.458.168.926.17 1.397h-4.642a7.48 7.48 0 01.184-.951m-21.94 24.643c-.797 0-1.58.213-2.27.617a9.543 9.543 0 00-1.796 1.412l-.355-1.858-4.244.194v1.746l1.612.49v8.443l-1.611.461v1.753h7v-1.753l-2.003-.469v-7.052c.301-.332.647-.62 1.028-.855.44-.289.953-.448 1.479-.461h.369l.281 2.022h1.937l.215-4.459a6.004 6.004 0 00-1.642-.245v.014zm13.16 1.687a5.761 5.761 0 00-4.436-1.701 6.62 6.62 0 00-3.452.847 5.604 5.604 0 00-2.181 2.415 8.498 8.498 0 00-.74 3.753 6.908 6.908 0 001.553 4.831 5.73 5.73 0 002.034 1.334 5.688 5.688 0 002.402.367 6.694 6.694 0 003.475-.854 5.523 5.523 0 002.218-2.415 8.333 8.333 0 00.739-3.716 6.778 6.778 0 00-1.597-4.831l-.015-.03zm-2.203 7.462a3.07 3.07 0 01-.917 1.486 2.466 2.466 0 01-1.567.483 2.218 2.218 0 01-1.981-1.011 6.161 6.161 0 01-.659-3.262 6.44 6.44 0 01.68-3.337 2.512 2.512 0 012.03-1.079 2.499 2.499 0 012.052 1.035c.521.992.755 2.113.672 3.232a8.398 8.398 0 01-.31 2.46v-.007zm17.744 1.85v-10.805l-4.976.171v1.746l1.597.49v7.12c-.39.363-.834.661-1.316.884a3.51 3.51 0 01-1.479.35 1.73 1.73 0 01-1.345-.543 2.41 2.41 0 01-.51-1.687v-8.546l-4.976.171v1.746l1.597.491v6.688a4.251 4.251 0 001.087 3.196 3.695 3.695 0 002.698 1.055 5.926 5.926 0 002.477-.587 8.314 8.314 0 002.122-1.397l.355 1.858 4.25-.194v-1.701l-1.581-.506zm7.149 5.485l.362.513v-.417l-.362-.096zm-3.017.067v.446l.43-.588-.43.142zm-43.711-4.497a5.997 5.997 0 00-3.696-.958H15.65l.296-1.873c.642.149 1.3.224 1.96.223a6.392 6.392 0 004.199-1.301 4.374 4.374 0 001.567-3.559 4.098 4.098 0 00-.192-1.331 3.06 3.06 0 00-.326-.743l1.479-.305v-1.865l-3.541.149a8.023 8.023 0 00-3.024-.513 6.478 6.478 0 00-4.266 1.278 4.341 4.341 0 00-1.53 3.53 4.474 4.474 0 00.643 2.43 4.08 4.08 0 001.53 1.435l-.606.973a11.24 11.24 0 00-.518.937c-.125.26-.207.468-.266.631-.052.159-.08.324-.081.491a1.248 1.248 0 00.57 1.077c.136.098.285.175.443.231a5.046 5.046 0 00-1.338.906 2.732 2.732 0 00-.836 2.029c-.01.498.123.989.386 1.411.263.423.643.759 1.093.967a9.739 9.739 0 004.48.803c2.38 0 4.17-.364 5.36-1.107a3.563 3.563 0 001.79-3.211 3.278 3.278 0 00-1.243-2.757l-.037.022zm-7.356-9.185a2.316 2.316 0 011.693-.58 2.427 2.427 0 011.76.572 2.447 2.447 0 01.576 1.806 2.557 2.557 0 01-.628 1.873 2.447 2.447 0 01-1.811.632 2.142 2.142 0 01-1.671-.632 2.617 2.617 0 01-.57-1.821 2.488 2.488 0 01.592-1.82l.06-.03zm4.503 13.466c-.891.33-1.84.472-2.788.416a6.362 6.362 0 01-2.513-.364 1.164 1.164 0 01-.791-1.07 2.179 2.179 0 01.998-1.695h3.696a3.205 3.205 0 011.664.357 1.25 1.25 0 01.576 1.145 1.296 1.296 0 01-.842 1.211z" fill="#fff"/><path d="M78.586 171.699a4.872 4.872 0 00-1.678-2.177 4.18 4.18 0 00-2.462-.744 4.918 4.918 0 00-2.218.536 9.83 9.83 0 00-1.9 1.293l-.303-1.658-4.252.194v1.746l1.62.49v13.95l.428-.142-.428.588v-.446l-1.62.542v1.747h6.883v-1.747l-1.885-.513v.417l-.362-.513.362.096v-3.269c.296.059.592.111.873.148.399.058.801.088 1.205.089a6.792 6.792 0 003.341-.795 5.274 5.274 0 002.218-2.363 8.673 8.673 0 00.799-3.931 9.123 9.123 0 00-.614-3.538h-.007zm-3.69 7.053a2.792 2.792 0 01-2.498 1.166 6.838 6.838 0 01-1.641-.222v-7.432a5.435 5.435 0 011.034-.676 3.12 3.12 0 011.331-.342 1.93 1.93 0 011.375.527c.412.414.712.925.873 1.487.222.744.327 1.519.31 2.296a5.57 5.57 0 01-.783 3.173m90.108-133.843v44.01h-21.899v-44.01c0-2.89-.566-5.75-1.666-8.419a21.992 21.992 0 00-4.743-7.136 21.876 21.876 0 00-7.1-4.768 21.787 21.787 0 00-16.749 0 21.876 21.876 0 00-7.1 4.768 22.01 22.01 0 00-4.744 7.137 22.104 22.104 0 00-1.666 8.418v44.01H77.44v-44.01c0-2.89-.566-5.75-1.666-8.419a22.005 22.005 0 00-4.744-7.136 21.874 21.874 0 00-7.1-4.768 21.786 21.786 0 00-16.749 0 21.876 21.876 0 00-7.1 4.768 22.005 22.005 0 00-4.743 7.137 22.097 22.097 0 00-1.666 8.418H11.773V.883h21.9v5.886a43.59 43.59 0 0128.956-5.303 43.723 43.723 0 0125.753 14.325 43.736 43.736 0 0122.284-13.616 43.561 43.561 0 0126.033 1.538 43.809 43.809 0 0120.543 16.147 44.159 44.159 0 017.763 25.026zM44.596 66.89H.828v22.013h43.768V66.891zm218.908-22.004v44.01h-21.869v-44.01a22.088 22.088 0 00-3.693-12.224 21.921 21.921 0 00-9.827-8.102 21.788 21.788 0 00-12.649-1.248 21.86 21.86 0 00-11.207 6.026c-3.06 3.079-5.144 7-5.987 11.27a22.116 22.116 0 001.25 12.713 21.978 21.978 0 008.066 9.873 21.812 21.812 0 0012.163 3.704v21.998a43.614 43.614 0 01-24.321-7.412 43.948 43.948 0 01-16.126-19.745 44.217 44.217 0 01-2.496-25.423 44.077 44.077 0 0111.977-22.532 43.704 43.704 0 0122.412-12.047 43.563 43.563 0 0125.292 2.5c8 3.33 14.837 8.968 19.649 16.203a44.164 44.164 0 017.381 24.446M362 44.878v44.01h-21.87v-44.01a22.08 22.08 0 00-3.693-12.224 21.92 21.92 0 00-9.827-8.101 21.788 21.788 0 00-12.649-1.248 21.86 21.86 0 00-11.207 6.026c-3.06 3.079-5.144 7-5.987 11.269a22.115 22.115 0 001.25 12.713 21.978 21.978 0 008.066 9.873 21.812 21.812 0 0012.164 3.705v21.997a43.616 43.616 0 01-24.326-7.404 43.951 43.951 0 01-16.132-19.742 44.214 44.214 0 01-2.502-25.424 44.077 44.077 0 0111.973-22.536A43.708 43.708 0 01309.672 1.73a43.563 43.563 0 0125.294 2.497 43.827 43.827 0 0119.651 16.203A44.17 44.17 0 01362 44.878zm-87.551 65.993h21.884a22.062 22.062 0 006.412 15.56 21.831 21.831 0 0015.479 6.445 21.835 21.835 0 0015.48-6.445 22.066 22.066 0 006.412-15.56H362a44.118 44.118 0 01-12.822 31.115 43.66 43.66 0 01-30.954 12.888 43.658 43.658 0 01-30.953-12.888 44.118 44.118 0 01-12.822-31.115z" fill="#fff"/></svg>