<svg width="362" height="188" viewBox="0 0 362 188" fill="none" xmlns="http://www.w3.org/2000/svg">
<path d="M67.6831 105.335C67.2974 104.996 66.7977 104.818 66.2858 104.837C65.7476 104.806 65.2182 104.984 64.8072 105.335C64.4434 105.743 64.2424 106.272 64.2424 106.821C64.2424 107.369 64.4434 107.898 64.8072 108.307C65.1999 108.66 65.715 108.845 66.2414 108.82C66.7573 108.836 67.2607 108.659 67.6535 108.322C67.8517 108.132 68.0055 107.9 68.1039 107.643C68.2024 107.386 68.243 107.11 68.2228 106.836C68.2428 106.562 68.2036 106.288 68.1079 106.031C68.0121 105.775 67.8622 105.542 67.6683 105.349L67.6831 105.335ZM68.0306 121.573V110.722L63.0328 110.893V112.64L64.6519 113.093V121.573L63.0328 122.041V123.787H69.6645V122.019L68.0306 121.573ZM46.9082 117.069C46.9233 116.799 46.9233 116.529 46.9082 116.259C46.9236 115.255 46.735 114.259 46.3537 113.331C45.9988 112.484 45.392 111.767 44.6163 111.28C43.6837 110.746 42.6201 110.489 41.5481 110.537C40.3747 110.51 39.2155 110.8 38.1916 111.376C37.2307 111.943 36.4588 112.784 35.9737 113.792C35.4463 114.975 35.1984 116.264 35.2491 117.56C35.2085 118.8 35.4619 120.033 35.9885 121.156C36.4474 122.077 37.1679 122.84 38.0585 123.349C39.0014 123.863 40.0619 124.119 41.1341 124.092C42.0948 124.086 43.0483 123.926 43.9583 123.616C44.9807 123.277 45.9493 122.791 46.8343 122.175L45.6735 120.354C45.0576 120.724 44.3999 121.018 43.7144 121.231C43.1545 121.422 42.5683 121.525 41.9769 121.535C41.3011 121.565 40.6356 121.36 40.0917 120.956C39.5927 120.541 39.2359 119.98 39.0714 119.351C38.9359 118.893 38.8491 118.422 38.8127 117.946H46.8195C46.8639 117.619 46.9008 117.322 46.923 117.054L46.9082 117.069ZM38.7905 115.932C38.8326 115.612 38.8918 115.294 38.9679 114.981C39.0938 114.415 39.3816 113.898 39.796 113.494C40.1982 113.124 40.7291 112.926 41.2746 112.944C41.7534 112.919 42.2256 113.066 42.6054 113.361C42.9415 113.667 43.1763 114.069 43.2782 114.513C43.3888 114.97 43.4459 115.439 43.4482 115.91L38.7905 115.932ZM32.6245 121.535V114.587C32.6707 114.028 32.6035 113.466 32.4268 112.935C32.2501 112.403 31.9678 111.914 31.5969 111.495C31.262 111.164 30.8643 110.904 30.4274 110.73C29.9905 110.557 29.5233 110.473 29.0536 110.485C28.1906 110.503 27.3413 110.706 26.5621 111.079C25.8017 111.452 25.1034 111.941 24.492 112.528C24.2548 111.921 23.8365 111.401 23.2943 111.042C22.6989 110.674 22.0118 110.483 21.3129 110.492C20.4546 110.51 19.6102 110.713 18.8362 111.087C18.0753 111.45 17.3726 111.926 16.7513 112.499L16.4112 110.663L12.1602 110.856V112.603L13.7793 113.086V121.535L12.1602 122.004V123.75H18.5775V122.019L17.1949 121.58V114.334C17.573 113.971 18.0075 113.672 18.4813 113.45C18.9143 113.225 19.3917 113.101 19.8787 113.086C20.1083 113.082 20.3358 113.13 20.5444 113.226C20.753 113.323 20.9374 113.465 21.0838 113.643C21.4481 114.14 21.6214 114.752 21.5717 115.367V121.602L20.1892 122.019V123.765H26.3255V122.019L24.9504 121.543V114.349C25.3262 113.999 25.7493 113.704 26.2072 113.472C26.6368 113.236 27.1152 113.104 27.6046 113.086C27.8368 113.078 28.0676 113.125 28.2791 113.222C28.4906 113.318 28.6772 113.462 28.8244 113.643C29.1805 114.143 29.3482 114.754 29.2976 115.367V121.61L27.9446 122.019V123.765H34.2954V122.019L32.6245 121.535Z" fill="white"/>
<path d="M60.3646 121.521V104.926L55.2485 105.119V106.836L56.9859 107.415V110.663C56.8233 110.663 56.6606 110.618 56.5054 110.604C56.1516 110.568 55.7963 110.55 55.4408 110.552C53.5938 110.43 51.7731 111.041 50.369 112.253C49.1565 113.413 48.5577 115.189 48.5577 117.582C48.5268 118.793 48.7353 119.998 49.1713 121.127C49.5117 122.007 50.1 122.769 50.8644 123.319C51.5905 123.819 52.4537 124.079 53.3337 124.062C54.1035 124.067 54.8635 123.889 55.5517 123.542C56.2264 123.193 56.8487 122.751 57.4 122.227L57.7622 123.943L62.0133 123.75V122.019L60.3646 121.521ZM57.0229 120.532C56.7013 120.796 56.3517 121.022 55.9805 121.208C55.5732 121.43 55.1199 121.552 54.6571 121.565C54.1506 121.573 53.6606 121.384 53.2893 121.038C52.8726 120.627 52.5694 120.115 52.4095 119.551C52.1897 118.809 52.085 118.037 52.099 117.262C52.0385 116.152 52.3115 115.049 52.8827 114.096C53.1666 113.706 53.5454 113.395 53.9829 113.193C54.4203 112.992 54.9019 112.906 55.3816 112.945C55.9354 112.949 56.4865 113.021 57.0229 113.16V120.532Z" fill="white"/>
<path d="M81.4985 121.499V114.498C81.5376 113.944 81.4508 113.389 81.2446 112.874C81.0383 112.358 80.7181 111.897 80.3082 111.525C79.3131 110.814 78.1037 110.47 76.8851 110.552C76.0442 110.56 75.2055 110.642 74.3788 110.797C73.4695 110.96 72.4714 111.183 71.3772 111.473L71.5694 115.07H73.6691L73.9426 113.346C74.2528 113.254 74.569 113.185 74.889 113.138C75.2536 113.083 75.6218 113.056 75.9906 113.056C76.5593 113.014 77.1232 113.187 77.5727 113.539C77.7718 113.757 77.9228 114.014 78.0158 114.295C78.1088 114.575 78.1417 114.873 78.1124 115.167V116.497H75.7244C74.794 116.477 73.8662 116.603 72.9741 116.869C72.2848 117.058 71.6768 117.471 71.2441 118.043C70.8166 118.704 70.6094 119.485 70.6527 120.272C70.6188 120.793 70.6911 121.316 70.8653 121.808C71.0395 122.3 71.3118 122.751 71.6655 123.133C72.0043 123.462 72.4052 123.72 72.8445 123.891C73.2838 124.062 73.7527 124.143 74.2236 124.129C75.0384 124.122 75.8396 123.918 76.5598 123.535C77.2939 123.143 77.9484 122.616 78.4895 121.982L78.8887 124.01L83.1102 123.84V122.019L81.4985 121.499ZM78.1124 120.361C77.7413 120.703 77.3319 121 76.8925 121.246C76.4786 121.488 76.0107 121.621 75.5322 121.632C75.3362 121.639 75.1411 121.603 74.9601 121.527C74.779 121.452 74.6161 121.338 74.4823 121.194C74.3275 121.016 74.2097 120.808 74.1361 120.584C74.0624 120.359 74.0344 120.122 74.0535 119.886C74.0353 119.658 74.0699 119.428 74.1546 119.215C74.2392 119.003 74.3716 118.812 74.5415 118.66C75.0617 118.339 75.6717 118.198 76.2789 118.258H78.1124V120.361Z" fill="white"/>
<path d="M127.07 150.668V143.801C127.122 143.234 127.054 142.663 126.87 142.125C126.687 141.587 126.392 141.095 126.006 140.679C125.641 140.336 125.212 140.067 124.744 139.89C124.276 139.713 123.777 139.63 123.278 139.646C122.417 139.664 121.569 139.858 120.786 140.219C120.005 140.573 119.288 141.055 118.664 141.646L118.324 139.817L114.073 140.011V141.757L115.692 142.24V150.69L114.073 151.158V152.904H120.52V151.158L119.041 150.72V143.481C119.429 143.116 119.871 142.813 120.35 142.582C120.792 142.36 121.276 142.235 121.769 142.218C122.024 142.207 122.279 142.251 122.515 142.349C122.751 142.446 122.963 142.594 123.137 142.783C123.525 143.277 123.71 143.902 123.655 144.529V150.734L122.176 151.158V152.904H128.63V151.158L127.07 150.668ZM111.034 134.467C110.645 134.129 110.144 133.951 109.63 133.969C109.106 133.948 108.595 134.126 108.195 134.467C108 134.659 107.848 134.891 107.749 135.147C107.651 135.404 107.609 135.679 107.626 135.953C107.604 136.226 107.641 136.5 107.736 136.757C107.83 137.014 107.979 137.247 108.173 137.439C108.566 137.792 109.082 137.974 109.607 137.945C110.122 137.961 110.625 137.787 111.02 137.454C111.383 137.045 111.584 136.516 111.584 135.968C111.584 135.419 111.383 134.89 111.02 134.481L111.034 134.467ZM111.374 150.705V139.855L106.377 140.025V141.772L107.996 142.225V150.705L106.377 151.173V152.919H112.994V151.173L111.374 150.705ZM104.395 147.041C104.078 146.573 103.652 146.19 103.153 145.926C102.636 145.645 102.094 145.414 101.534 145.235L99.9224 144.715C99.4797 144.582 99.057 144.389 98.6656 144.143C98.5104 144.047 98.3829 143.913 98.296 143.752C98.209 143.592 98.1656 143.411 98.1702 143.228C98.1664 143.031 98.216 142.836 98.3136 142.665C98.4113 142.493 98.5533 142.352 98.7247 142.255C99.1612 142.015 99.6545 141.899 100.152 141.921C100.708 141.926 101.263 141.988 101.808 142.106L102.133 143.593H104.233L104.395 140.323C103.645 140.126 102.885 139.97 102.118 139.855C101.425 139.734 100.722 139.671 100.019 139.669C99.1437 139.661 98.2738 139.801 97.4457 140.085C96.7116 140.326 96.0622 140.775 95.5752 141.378C95.0735 142.035 94.8124 142.846 94.8359 143.674C94.8026 144.344 94.9728 145.007 95.3238 145.577C95.6415 146.056 96.067 146.453 96.5659 146.736C97.0729 147.027 97.6112 147.259 98.1702 147.427C98.7321 147.598 99.2718 147.762 99.7745 147.933C100.212 148.071 100.628 148.271 101.009 148.527C101.161 148.634 101.283 148.776 101.366 148.942C101.449 149.109 101.489 149.293 101.482 149.478C101.488 149.634 101.46 149.789 101.398 149.931C101.337 150.074 101.244 150.201 101.127 150.303C100.868 150.528 100.563 150.693 100.233 150.786C99.8616 150.901 99.4753 150.959 99.087 150.957C98.7405 150.953 98.3948 150.926 98.0519 150.876C97.7756 150.836 97.5017 150.782 97.2313 150.712L97.0095 148.921H94.8876L94.725 152.563C95.4643 152.756 96.2036 152.912 96.9429 153.023C97.6301 153.133 98.3246 153.19 99.0204 153.194C100.027 153.206 101.027 153.042 101.978 152.711C102.802 152.422 103.529 151.907 104.077 151.225C104.597 150.531 104.859 149.677 104.817 148.81C104.845 148.167 104.674 147.531 104.329 146.989L104.395 147.041ZM91.3611 134.429C90.9754 134.091 90.4756 133.913 89.9637 133.931C89.4405 133.911 88.9287 134.089 88.5295 134.429C88.1658 134.838 87.9647 135.367 87.9647 135.916C87.9647 136.464 88.1658 136.993 88.5295 137.402C88.7302 137.581 88.9643 137.718 89.2182 137.804C89.4721 137.891 89.7406 137.926 90.0081 137.907C90.5228 137.924 91.0256 137.75 91.4202 137.417C91.6171 137.226 91.7701 136.994 91.8684 136.737C91.9668 136.48 92.0081 136.205 91.9895 135.931C92.0106 135.657 91.9711 135.381 91.874 135.124C91.7768 134.867 91.6244 134.635 91.4276 134.444L91.3611 134.429ZM91.7899 150.668V139.855L86.7921 140.025V141.772L88.4112 142.225V150.705L86.7921 151.173V152.919H93.409V151.173L91.7899 150.668ZM85.2247 150.184C84.855 150.333 84.4854 150.445 84.197 150.541C83.9179 150.622 83.6297 150.667 83.3394 150.675C83.1452 150.688 82.9507 150.652 82.7738 150.57C82.597 150.488 82.4432 150.363 82.3266 150.207C82.0645 149.758 81.9458 149.239 81.9865 148.72V142.188H85.2469L85.2986 139.959H81.9865V136.51L78.5856 137.12V139.951L76.7003 140.397V142.218H78.5856V149.211C78.5116 150.272 78.8128 151.324 79.4358 152.184C79.755 152.532 80.1479 152.803 80.5856 152.978C81.0232 153.153 81.4944 153.227 81.9643 153.194C83.3345 153.159 84.6731 152.773 85.8531 152.072L85.2247 150.184ZM74.5859 139.646C73.7882 139.646 73.0048 139.859 72.3162 140.263C71.663 140.66 71.0597 141.134 70.5196 141.675L70.1721 139.817L65.921 140.011V141.757L67.5328 142.248V150.69L65.921 151.158V152.904H72.9224V151.158L70.9189 150.682V143.637C71.2067 143.303 71.5432 143.015 71.9169 142.783C72.3557 142.489 72.8685 142.326 73.3956 142.314H73.6987H73.7726L74.0536 144.336H76.0054L76.2272 139.877C75.6912 139.72 75.1366 139.638 74.5785 139.632L74.5859 139.646ZM46.9575 140.018V141.772L48.3326 142.054L45.8115 150.311L43.5936 141.98L45.0278 141.549V139.855L39.1133 140.048V141.802L40.1631 142.084L43.5788 152.964H47.5415L51.386 142.047L52.4432 141.579V139.855L46.9575 140.018Z" fill="white"/>
<path d="M141.102 151.701C140.007 150.984 138.709 150.647 137.405 150.742H133.102L133.391 148.869C134.033 149.019 134.691 149.094 135.35 149.092C136.861 149.169 138.35 148.708 139.557 147.791C140.073 147.361 140.484 146.817 140.756 146.2C141.028 145.584 141.154 144.913 141.124 144.239C141.131 143.786 141.066 143.334 140.932 142.901C140.851 142.641 140.739 142.392 140.599 142.158L142.078 141.861V139.988L138.529 140.137C137.565 139.774 136.542 139.6 135.513 139.624C133.985 139.53 132.474 139.982 131.247 140.902C130.738 141.332 130.336 141.875 130.07 142.487C129.805 143.099 129.684 143.765 129.716 144.432C129.692 145.287 129.913 146.13 130.352 146.863C130.734 147.461 131.26 147.952 131.883 148.289C131.653 148.676 131.446 149.033 131.284 149.278C131.093 149.577 130.92 149.887 130.766 150.207C130.648 150.467 130.552 150.682 130.5 150.838C130.442 150.995 130.412 151.161 130.411 151.329C130.407 151.542 130.457 151.753 130.557 151.942C130.657 152.13 130.802 152.29 130.981 152.407C131.117 152.504 131.266 152.581 131.424 152.637C130.935 152.869 130.483 153.174 130.086 153.544C129.815 153.805 129.6 154.12 129.456 154.47C129.312 154.819 129.242 155.194 129.251 155.572C129.242 156.07 129.377 156.56 129.639 156.982C129.902 157.404 130.28 157.741 130.729 157.951C132.139 158.568 133.674 158.843 135.21 158.753C137.598 158.753 139.379 158.389 140.577 157.653C141.138 157.331 141.6 156.861 141.914 156.294C142.228 155.727 142.382 155.084 142.359 154.435C142.389 153.909 142.291 153.383 142.075 152.903C141.859 152.423 141.53 152.003 141.117 151.678L141.102 151.701ZM133.724 142.515C133.959 142.299 134.236 142.134 134.537 142.029C134.838 141.924 135.158 141.882 135.476 141.906C135.797 141.855 136.125 141.883 136.434 141.985C136.743 142.087 137.023 142.261 137.252 142.493C137.48 142.725 137.651 143.009 137.75 143.32C137.848 143.631 137.872 143.961 137.819 144.284C137.844 144.622 137.802 144.962 137.694 145.284C137.586 145.606 137.415 145.902 137.191 146.157C136.946 146.378 136.66 146.548 136.349 146.656C136.038 146.765 135.708 146.81 135.38 146.788C135.071 146.809 134.762 146.764 134.472 146.655C134.183 146.546 133.92 146.376 133.701 146.157C133.292 145.643 133.088 144.993 133.132 144.336C133.082 143.674 133.295 143.02 133.724 142.515ZM138.315 155.959C137.425 156.293 136.475 156.434 135.527 156.375C134.674 156.423 133.819 156.3 133.014 156.011C132.787 155.937 132.588 155.795 132.446 155.603C132.303 155.412 132.222 155.18 132.215 154.941C132.237 154.598 132.341 154.265 132.517 153.97C132.693 153.675 132.937 153.427 133.228 153.246H136.925C137.502 153.21 138.078 153.336 138.588 153.61C138.78 153.728 138.935 153.896 139.038 154.097C139.141 154.297 139.188 154.522 139.172 154.747C139.169 155.013 139.085 155.271 138.931 155.488C138.778 155.704 138.563 155.868 138.315 155.959Z" fill="white"/>
<path d="M23.0964 150.623V143.63C23.1428 143.07 23.0602 142.508 22.8551 141.986C22.6499 141.464 22.3277 140.996 21.9135 140.62C20.9156 139.908 19.7039 139.564 18.4831 139.646C17.6446 139.654 16.8084 139.736 15.9842 139.891C15.0748 140.055 14.0693 140.278 12.9751 140.568L13.1674 144.165H15.2744L15.5406 142.44C15.853 142.348 16.1718 142.278 16.4943 142.232C16.8565 142.178 17.2222 142.15 17.5885 142.151C18.1573 142.108 18.7214 142.28 19.1706 142.634C19.3722 142.85 19.5254 143.107 19.6198 143.388C19.7141 143.669 19.7475 143.966 19.7177 144.261V145.599H17.3223C16.393 145.579 15.4659 145.699 14.5721 145.956C13.8851 146.155 13.2792 146.569 12.8421 147.137C12.4112 147.797 12.2037 148.579 12.2506 149.367C12.2159 149.889 12.2886 150.412 12.4642 150.904C12.6397 151.396 12.9143 151.847 13.2709 152.228C13.6081 152.56 14.0085 152.819 14.4481 152.992C14.8876 153.164 15.3573 153.246 15.8289 153.231C16.6415 153.225 17.4405 153.021 18.1578 152.637C18.89 152.245 19.5441 151.721 20.0874 151.091L20.4866 153.112L24.7155 152.941V151.195L23.0964 150.623ZM18.4979 150.377C18.0813 150.619 17.611 150.752 17.1301 150.764C16.9341 150.77 16.7391 150.734 16.558 150.659C16.3769 150.583 16.2141 150.47 16.0803 150.325C15.7745 149.962 15.6231 149.492 15.6589 149.017C15.6398 148.79 15.6732 148.561 15.7565 148.348C15.8399 148.135 15.9709 147.945 16.1394 147.791C16.6601 147.472 17.2697 147.331 17.8768 147.39H19.7177V149.515C19.3466 149.857 18.9372 150.154 18.4979 150.4" fill="white"/>
<path d="M37.6062 150.653V134.013L32.4901 134.206V135.931L34.2275 136.503V139.758C34.0649 139.758 33.9022 139.713 33.747 139.698C33.3932 139.663 33.0379 139.645 32.6824 139.646C30.8228 139.529 28.9924 140.154 27.5885 141.385C26.376 142.537 25.7771 144.313 25.7771 146.714C25.7426 147.925 25.9513 149.131 26.3908 150.259C26.7249 151.153 27.3137 151.928 28.0838 152.488C28.8099 152.988 29.6731 153.248 30.5531 153.231C31.3225 153.233 32.0817 153.055 32.7711 152.711C33.4458 152.363 34.0681 151.92 34.6194 151.396L34.9817 153.112L39.2327 152.912V151.195L37.6062 150.653ZM31.8617 150.697C31.3549 150.707 30.8644 150.517 30.494 150.17C30.0783 149.759 29.7752 149.247 29.6142 148.683C29.3934 147.944 29.2886 147.174 29.3037 146.402C29.2413 145.291 29.5144 144.188 30.0874 143.236C30.374 142.841 30.7575 142.527 31.2006 142.325C31.6437 142.123 32.1313 142.04 32.6158 142.084C33.1696 142.088 33.7208 142.161 34.2571 142.299V149.664C33.9374 149.932 33.5876 150.162 33.2147 150.348C32.8074 150.569 32.3541 150.692 31.8913 150.705" fill="white"/>
<path d="M64.4081 146.186C64.4355 145.917 64.4479 145.647 64.4451 145.376C64.4605 144.372 64.2719 143.376 63.8906 142.448C63.5324 141.603 62.9264 140.887 62.1532 140.397C61.2206 139.863 60.157 139.606 59.085 139.654C57.9115 139.626 56.752 139.916 55.7285 140.493C54.7659 141.058 53.9934 141.899 53.5106 142.909C52.9599 144.083 52.6914 145.371 52.7269 146.669C52.6862 147.91 52.9396 149.143 53.4662 150.266C53.9204 151.198 54.6413 151.972 55.5363 152.488C56.4822 153.001 57.5448 153.257 58.6193 153.231C59.5799 153.225 60.5333 153.064 61.4435 152.756C62.4653 152.415 63.4336 151.929 64.3194 151.314L63.1587 149.493C62.5356 149.872 61.8707 150.176 61.1773 150.4C60.6174 150.592 60.0313 150.694 59.4399 150.705C58.764 150.734 58.0986 150.529 57.5546 150.125C57.0552 149.709 56.6962 149.149 56.527 148.52C56.3943 148.061 56.3076 147.591 56.2682 147.115H64.2751C64.3194 146.788 64.3564 146.491 64.3786 146.223L64.4081 146.186ZM56.4457 144.15C56.5745 143.587 56.859 143.071 57.2663 142.664C57.6729 142.301 58.2015 142.107 58.7449 142.121C59.2203 142.096 59.6892 142.24 60.0683 142.53C60.4108 142.835 60.6488 143.24 60.7485 143.689C60.8591 144.147 60.9162 144.615 60.9185 145.086H56.2756C56.3166 144.765 56.3783 144.448 56.4604 144.135" fill="white"/>
<path d="M34.5203 168.778C33.7226 168.778 32.9392 168.991 32.2506 169.395C31.5974 169.792 30.9942 170.266 30.454 170.807L30.0992 168.949L25.8555 169.143V170.889L27.4672 171.379V179.822L25.8555 180.283V182.036H32.8568V180.283L30.8533 179.814V172.762C31.1542 172.43 31.5001 172.142 31.8809 171.907C32.3217 171.618 32.8337 171.459 33.3596 171.446H33.6627H33.7292L34.0102 173.468H35.9472L36.1616 169.009C35.6283 168.852 35.076 168.769 34.5203 168.764V168.778ZM47.6802 170.465C47.1025 169.883 46.4084 169.43 45.6438 169.136C44.8792 168.843 44.0613 168.716 43.2443 168.764C42.0383 168.726 40.8448 169.019 39.7917 169.611C38.843 170.181 38.084 171.022 37.6107 172.026C37.0823 173.204 36.8294 174.488 36.8713 175.779C36.7575 177.529 37.3129 179.257 38.4239 180.61C38.9993 181.195 39.693 181.651 40.4583 181.944C41.2235 182.238 42.0424 182.363 42.8598 182.311C44.0736 182.347 45.2743 182.052 46.3346 181.457C47.3004 180.896 48.074 180.054 48.5526 179.042C49.081 177.877 49.3341 176.605 49.2919 175.326C49.4066 173.568 48.8335 171.834 47.695 170.495L47.6802 170.465ZM45.477 177.927C45.3213 178.501 45.0028 179.018 44.5603 179.413C44.1075 179.748 43.5548 179.919 42.9929 179.896C42.6034 179.918 42.2151 179.836 41.8672 179.658C41.5194 179.481 41.2242 179.214 41.0115 178.885C40.4974 177.88 40.2697 176.751 40.3535 175.623C40.2769 174.469 40.5119 173.316 41.0337 172.286C41.262 171.957 41.5652 171.687 41.9182 171.499C42.2711 171.312 42.6636 171.212 43.0628 171.207C43.4621 171.203 43.8566 171.294 44.2135 171.474C44.5704 171.654 44.8794 171.917 45.1148 172.242C45.6364 173.234 45.8695 174.355 45.7875 175.474C45.8063 176.305 45.7016 177.134 45.477 177.934V177.927ZM63.2207 179.777V168.972L58.2451 169.143V170.889L59.842 171.379V178.499C59.4523 178.862 59.0082 179.16 58.526 179.383C58.0643 179.606 57.5597 179.726 57.0474 179.733C56.7975 179.745 56.5479 179.703 56.3156 179.609C56.0834 179.516 55.874 179.373 55.7018 179.19C55.3251 178.713 55.1427 178.11 55.1917 177.503V168.957L50.2161 169.128V170.874L51.813 171.365V178.053C51.766 178.632 51.8383 179.215 52.0253 179.765C52.2122 180.315 52.51 180.82 52.8998 181.249C53.2558 181.598 53.6783 181.872 54.142 182.053C54.6057 182.234 55.101 182.32 55.5983 182.304C56.4564 182.29 57.3012 182.09 58.0751 181.717C58.8493 181.363 59.5649 180.892 60.1969 180.32L60.5518 182.178L64.8029 181.984V180.283L63.2207 179.777ZM70.3699 185.262L70.7322 185.775V185.358L70.3699 185.262ZM67.3535 185.329V185.775L67.7823 185.187L67.3535 185.329Z" fill="white"/>
<path d="M23.6423 180.832C22.5463 180.118 21.2488 179.782 19.9457 179.874H15.6503L15.946 178.001C16.5884 178.15 17.2458 178.225 17.9052 178.224C19.4136 178.301 20.9006 177.84 22.1046 176.923C22.6226 176.493 23.0339 175.947 23.306 175.329C23.578 174.711 23.7033 174.038 23.6719 173.364C23.6816 172.913 23.6166 172.463 23.4797 172.033C23.4047 171.772 23.2953 171.522 23.1544 171.29L24.633 170.985V169.12L21.0917 169.269C20.1257 168.905 19.0992 168.731 18.0679 168.756C16.5405 168.664 15.0299 169.117 13.802 170.034C13.293 170.464 12.89 171.006 12.6244 171.619C12.3589 172.231 12.2381 172.897 12.2716 173.564C12.2496 174.42 12.4729 175.263 12.9148 175.994C13.2917 176.598 13.8193 177.093 14.4452 177.429L13.839 178.402C13.6172 178.766 13.4471 179.079 13.3214 179.339C13.1957 179.599 13.1144 179.807 13.0553 179.97C13.0031 180.129 12.9757 180.294 12.974 180.461C12.9685 180.674 13.018 180.886 13.1178 181.075C13.2175 181.264 13.3641 181.423 13.5432 181.538C13.6797 181.636 13.829 181.713 13.9868 181.769C13.4952 181.997 13.0433 182.303 12.6487 182.675C12.3768 182.937 12.1621 183.252 12.0182 183.601C11.8744 183.951 11.8046 184.326 11.8132 184.704C11.8023 185.202 11.9365 185.693 12.1992 186.115C12.4619 186.538 12.8417 186.874 13.2919 187.082C14.7017 187.7 16.2367 187.975 17.7721 187.885C20.1528 187.885 21.9419 187.521 23.1322 186.778C23.6936 186.458 24.1572 185.989 24.4726 185.423C24.788 184.858 24.9432 184.216 24.9214 183.567C24.9513 183.041 24.854 182.515 24.6377 182.035C24.4213 181.555 24.0925 181.135 23.6793 180.81L23.6423 180.832ZM16.2861 171.647C16.5162 171.443 16.7843 171.286 17.0749 171.187C17.3655 171.087 17.6728 171.046 17.9792 171.067C18.6178 171.018 19.25 171.223 19.7387 171.639C19.95 171.886 20.1099 172.174 20.209 172.484C20.308 172.794 20.3442 173.121 20.3154 173.445C20.3404 173.784 20.2976 174.124 20.1897 174.446C20.0818 174.767 19.9108 175.064 19.687 175.318C19.4424 175.54 19.1561 175.71 18.845 175.818C18.5339 175.927 18.2042 175.972 17.8756 175.95C17.5683 175.971 17.26 175.926 16.9717 175.817C16.6834 175.708 16.4218 175.538 16.2048 175.318C15.793 174.805 15.5896 174.155 15.6355 173.497C15.6088 173.17 15.6473 172.84 15.7489 172.527C15.8504 172.215 16.013 171.925 16.227 171.677L16.2861 171.647ZM20.7886 185.113C19.8979 185.443 18.949 185.585 18.0013 185.529C17.1477 185.578 16.293 185.454 15.4876 185.165C15.2628 185.089 15.0665 184.946 14.9251 184.755C14.7836 184.563 14.7039 184.333 14.6966 184.095C14.7182 183.753 14.8199 183.422 14.9934 183.127C15.1669 182.833 15.4072 182.584 15.6947 182.4H19.3913C19.9675 182.367 20.5421 182.49 21.0547 182.757C21.2443 182.878 21.3979 183.048 21.4994 183.25C21.6009 183.451 21.6465 183.676 21.6314 183.902C21.6309 184.166 21.5498 184.424 21.3992 184.64C21.2485 184.857 21.0354 185.022 20.7886 185.113Z" fill="white"/>
<path d="M78.5859 171.699C78.2459 170.826 77.6633 170.07 76.9076 169.522C76.1846 169.021 75.3235 168.761 74.4457 168.778C73.6749 168.78 72.9154 168.964 72.2277 169.314C71.5463 169.669 70.9086 170.103 70.3277 170.607L70.0245 168.949L65.7734 169.143V170.889L67.3925 171.379V185.329L67.8214 185.187L67.3925 185.775V185.329L65.7734 185.871V187.618H72.6565V185.871L70.7712 185.358V185.775L70.409 185.262L70.7712 185.358V182.089C71.067 182.148 71.3627 182.2 71.6436 182.237C72.0428 182.295 72.4455 182.325 72.8487 182.326C74.0118 182.352 75.1621 182.078 76.1905 181.531C77.1583 180.997 77.9344 180.17 78.4084 179.168C78.9779 177.939 79.2515 176.592 79.2069 175.237C79.2386 174.028 79.03 172.825 78.5932 171.699H78.5859ZM74.8966 178.752C74.6159 179.147 74.2381 179.462 73.8002 179.666C73.3622 179.871 72.8791 179.958 72.3977 179.918C71.8437 179.911 71.2926 179.836 70.7565 179.696V172.264C71.0749 172 71.4221 171.773 71.7915 171.588C72.2046 171.376 72.659 171.26 73.1223 171.246C73.6319 171.233 74.126 171.422 74.4974 171.773C74.9086 172.187 75.2087 172.698 75.3698 173.26C75.5921 174.004 75.6969 174.779 75.6803 175.556C75.7419 176.669 75.4689 177.775 74.8966 178.729" fill="white"/>
<path d="M165.005 44.8856V88.8958H143.106V44.8856C143.106 41.9969 142.54 39.1364 141.44 36.4675C140.341 33.7986 138.729 31.3736 136.697 29.331C134.665 27.2883 132.252 25.6679 129.597 24.5625C126.942 23.457 124.096 22.888 121.222 22.888C118.349 22.888 115.503 23.457 112.848 24.5625C110.193 25.6679 107.78 27.2883 105.748 29.331C103.716 31.3736 102.104 33.7986 101.004 36.4675C99.9046 39.1364 99.3385 41.9969 99.3385 44.8856V88.8958H77.4399V44.8856C77.4399 41.9969 76.8738 39.1364 75.7741 36.4675C74.6743 33.7986 73.0623 31.3736 71.0302 29.331C68.9981 27.2883 66.5857 25.6679 63.9306 24.5625C61.2755 23.457 58.4298 22.888 55.556 22.888C52.6822 22.888 49.8365 23.457 47.1814 24.5625C44.5263 25.6679 42.1139 27.2883 40.0817 29.331C38.0496 31.3736 36.4377 33.7986 35.3379 36.4675C34.2381 39.1364 33.6721 41.9969 33.6721 44.8856H11.7734V0.88292H33.6721V6.76878C42.4263 1.6953 52.6569 -0.178119 62.6286 1.46628C72.6003 3.11068 81.6991 8.17165 88.3818 15.7908C94.2612 9.08179 102.034 4.33228 110.666 2.17466C119.298 0.017042 128.378 0.553701 136.699 3.71318C145.02 6.87266 152.185 12.505 157.242 19.8603C162.299 27.2156 165.007 35.9448 165.005 44.8856Z" fill="white"/>
<path d="M44.5959 66.8906H0.828125V88.9031H44.5959V66.8906Z" fill="white"/>
<path d="M263.504 44.8857V88.8958H241.635V44.8857C241.634 40.5335 240.348 36.2795 237.942 32.6616C235.535 29.0437 232.115 26.2244 228.115 24.5602C224.114 22.8961 219.712 22.4618 215.466 23.3123C211.22 24.1628 207.32 26.2599 204.259 29.3384C201.199 32.4169 199.115 36.3386 198.272 40.6074C197.429 44.8763 197.864 49.3006 199.522 53.321C201.18 57.3413 203.987 60.7771 207.588 63.1938C211.189 65.6105 215.422 66.8997 219.751 66.8982V88.8958C211.093 88.8973 202.63 86.318 195.43 81.4842C188.23 76.6503 182.618 69.779 179.304 61.7391C175.989 53.6992 175.121 44.8519 176.808 36.3159C178.496 27.7799 182.664 19.9387 188.785 13.7838C194.906 7.62882 202.705 3.43665 211.197 1.73735C219.688 0.0380548 228.49 0.907961 236.489 4.23706C244.489 7.56617 251.326 13.2049 256.138 20.4403C260.949 27.6757 263.518 36.1828 263.519 44.8857" fill="white"/>
<path d="M362 44.8782V88.8884H340.13V44.8782C340.129 40.526 338.844 36.272 336.437 32.6541C334.03 29.0362 330.61 26.2169 326.61 24.5528C322.609 22.8886 318.207 22.4544 313.961 23.3049C309.715 24.1554 305.815 26.2525 302.754 29.331C299.694 32.4095 297.61 36.3311 296.767 40.6C295.924 44.8688 296.359 49.2932 298.017 53.3135C299.675 57.3339 302.482 60.7696 306.083 63.1864C309.684 65.6031 313.917 66.8922 318.247 66.8907V88.8884C309.588 88.8928 301.123 86.316 293.921 81.484C286.72 76.6519 281.105 69.7816 277.789 61.742C274.472 53.7023 273.601 44.8545 275.287 36.3176C276.973 27.7806 281.14 19.938 287.26 13.7816C293.381 7.62515 301.18 3.4315 309.672 1.73099C318.163 0.0304922 326.966 0.89953 334.966 4.2282C342.966 7.55686 349.805 13.1956 354.617 20.4313C359.429 27.6671 361.998 36.1747 362 44.8782Z" fill="white"/>
<path d="M274.449 110.871H296.333C296.333 116.707 298.639 122.304 302.745 126.431C306.85 130.558 312.418 132.876 318.224 132.876C324.03 132.876 329.598 130.558 333.704 126.431C337.809 122.304 340.116 116.707 340.116 110.871H362C362 122.541 357.388 133.734 349.178 141.986C340.969 150.238 329.834 154.874 318.224 154.874C306.614 154.874 295.48 150.238 287.271 141.986C279.061 133.734 274.449 122.541 274.449 110.871Z" fill="white"/>
</svg>
